<svg 
	width="800" 
	height="800" 
	viewBox="0 0 73 73" 
	xmlns="http://www.w3.org/2000/svg"
>
	<g 
		fill="none" 
		fill-rule="nonzero"
	>
		<rect 
			x="-1" 
			y="-1" 
			width="71" 
			height="71" 
			rx="14" 
			transform="translate(2 2)" 
			fill="#FFF" 
			stroke="#000" 
			stroke-width="2"
		/>
			<path 
				d="M52.28 22.247c-8.328 0-13.838 6.808-18.7 12.816-4.154 5.133-8.077 9.98-12.854 9.98-4.966 0-8.015-5.104-8.015-8.763 0-3.392 3.345-8.322 8.587-8.322 5.086 0 7.736 4.07 7.87 4.28a2.855 2.855 0 0 0 4.867-2.99c-.175-.284-4.364-7.001-12.737-7.001C12.872 22.247 7 29.643 7 36.28c0 6.846 5.637 14.474 13.726 14.474 7.501 0 12.48-6.15 17.293-12.098 4.453-5.5 8.659-10.698 14.26-10.698 3.333 0 5.524 1.131 6.694 3.454 1.014 2.016 1.014 4.298 1.013 5.088 0 .454-.24 2.727-1.348 4.774-1.265 2.332-3.06 3.417-5.654 3.417-5.224 0-8.046-3.395-9.109-4.674-.276-.333-.475-.573-.74-.8a2.854 2.854 0 0 0-3.84 4.223c.051.06.113.136.187.226 1.385 1.666 5.597 6.736 13.5 6.736 9.607 0 12.714-9.367 12.714-13.94 0-2.914-.545-5.476-1.623-7.618-1.514-3.009-4.79-6.597-11.793-6.597Z" 
				fill="#000"
			/>
	</g>
</svg>
